<svg width="40" height="40" viewBox="0 0 40 40" fill="none" xmlns="http://www.w3.org/2000/svg">
<path d="M20 36.6666C29.205 36.6666 36.6666 29.205 36.6666 20C36.6666 10.795 29.205 3.33331 20 3.33331C10.795 3.33331 3.33331 10.795 3.33331 20C3.33331 29.205 10.795 36.6666 20 36.6666Z" stroke="#F1F5F9" stroke-width="4" stroke-linejoin="round"/>
<path d="M20 15C20.663 15 21.2989 14.7366 21.7678 14.2678C22.2366 13.7989 22.5 13.163 22.5 12.5C22.5 11.837 22.2366 11.2011 21.7678 10.7322C21.2989 10.2634 20.663 10 20 10C19.337 10 18.7011 10.2634 18.2322 10.7322C17.7634 11.2011 17.5 11.837 17.5 12.5C17.5 13.163 17.7634 13.7989 18.2322 14.2678C18.7011 14.7366 19.337 15 20 15ZM20 30C20.663 30 21.2989 29.7366 21.7678 29.2678C22.2366 28.7989 22.5 28.163 22.5 27.5C22.5 26.837 22.2366 26.2011 21.7678 25.7322C21.2989 25.2634 20.663 25 20 25C19.337 25 18.7011 25.2634 18.2322 25.7322C17.7634 26.2011 17.5 26.837 17.5 27.5C17.5 28.163 17.7634 28.7989 18.2322 29.2678C18.7011 29.7366 19.337 30 20 30ZM12.5 22.5C13.163 22.5 13.7989 22.2366 14.2678 21.7678C14.7366 21.2989 15 20.663 15 20C15 19.337 14.7366 18.7011 14.2678 18.2322C13.7989 17.7634 13.163 17.5 12.5 17.5C11.837 17.5 11.2011 17.7634 10.7322 18.2322C10.2634 18.7011 10 19.337 10 20C10 20.663 10.2634 21.2989 10.7322 21.7678C11.2011 22.2366 11.837 22.5 12.5 22.5ZM27.5 22.5C28.163 22.5 28.7989 22.2366 29.2678 21.7678C29.7366 21.2989 30 20.663 30 20C30 19.337 29.7366 18.7011 29.2678 18.2322C28.7989 17.7634 28.163 17.5 27.5 17.5C26.837 17.5 26.2011 17.7634 25.7322 18.2322C25.2634 18.7011 25 19.337 25 20C25 20.663 25.2634 21.2989 25.7322 21.7678C26.2011 22.2366 26.837 22.5 27.5 22.5Z" stroke="#F1F5F9" stroke-width="4" stroke-linejoin="round"/>
<path d="M20 36.6667H36.6667" stroke="#F1F5F9" stroke-width="4" stroke-linecap="round"/>
</svg>
