<svg width="245" height="56" viewBox="0 0 245 56" fill="none" xmlns="http://www.w3.org/2000/svg">
<rect x="2" y="2" width="241" height="52" stroke="#F8FAFC" stroke-width="4"/>
<g filter="url(#filter0_d_12_19)">
<mask id="path-2-outside-1_12_19" maskUnits="userSpaceOnUse" x="56" y="10" width="182" height="38" fill="black">
<rect fill="white" x="56" y="10" width="182" height="38"/>
<path d="M65.6 46.48C63.008 46.48 61.024 45.744 59.648 44.272C58.272 42.8 57.584 40.72 57.584 38.032V20.368C57.584 17.68 58.272 15.6 59.648 14.128C61.024 12.656 63.008 11.92 65.6 11.92C68.192 11.92 70.176 12.656 71.552 14.128C72.928 15.6 73.616 17.68 73.616 20.368V38.032C73.616 40.72 72.928 42.8 71.552 44.272C70.176 45.744 68.192 46.48 65.6 46.48ZM65.6 41.68C67.424 41.68 68.336 40.576 68.336 38.368V20.032C68.336 17.824 67.424 16.72 65.6 16.72C63.776 16.72 62.864 17.824 62.864 20.032V38.368C62.864 40.576 63.776 41.68 65.6 41.68ZM76.6107 12.4H83.2348L88.3708 32.512H88.4668V12.4H93.1708V46H87.7467L81.4107 21.472H81.3148V46H76.6107V12.4ZM96.5191 12.4H104.295C106.919 12.4 108.887 13.104 110.199 14.512C111.511 15.92 112.167 17.984 112.167 20.704V24.016C112.167 26.736 111.511 28.8 110.199 30.208C108.887 31.616 106.919 32.32 104.295 32.32H101.799V46H96.5191V12.4ZM104.295 27.52C105.159 27.52 105.799 27.28 106.215 26.8C106.663 26.32 106.887 25.504 106.887 24.352V20.368C106.887 19.216 106.663 18.4 106.215 17.92C105.799 17.44 105.159 17.2 104.295 17.2H101.799V27.52H104.295ZM122.091 46.48C119.499 46.48 117.515 45.744 116.139 44.272C114.763 42.8 114.075 40.72 114.075 38.032V20.368C114.075 17.68 114.763 15.6 116.139 14.128C117.515 12.656 119.499 11.92 122.091 11.92C124.683 11.92 126.667 12.656 128.043 14.128C129.419 15.6 130.107 17.68 130.107 20.368V38.032C130.107 40.72 129.419 42.8 128.043 44.272C126.667 45.744 124.683 46.48 122.091 46.48ZM122.091 41.68C123.915 41.68 124.827 40.576 124.827 38.368V20.032C124.827 17.824 123.915 16.72 122.091 16.72C120.267 16.72 119.355 17.824 119.355 20.032V38.368C119.355 40.576 120.267 41.68 122.091 41.68ZM133.101 12.4H138.381V46H133.101V12.4ZM141.76 12.4H148.384L153.52 32.512H153.616V12.4H158.32V46H152.896L146.56 21.472H146.464V46H141.76V12.4ZM165.796 17.2H160.276V12.4H176.596V17.2H171.076V46H165.796V17.2ZM178.577 12.4H192.545V17.2H183.857V26.56H190.673V31.36H183.857V46H178.577V12.4ZM194.501 12.4H199.781V41.2H208.469V46H194.501V12.4ZM210.425 12.4H215.705V46H210.425V12.4ZM223.739 28.816L217.931 12.4H223.499L227.051 23.248H227.147L230.795 12.4H235.787L229.979 28.816L236.075 46H230.507L226.667 34.288H226.571L222.635 46H217.643L223.739 28.816Z"/>
</mask>
<path d="M65.6 46.48C63.008 46.48 61.024 45.744 59.648 44.272C58.272 42.8 57.584 40.72 57.584 38.032V20.368C57.584 17.68 58.272 15.6 59.648 14.128C61.024 12.656 63.008 11.92 65.6 11.92C68.192 11.92 70.176 12.656 71.552 14.128C72.928 15.6 73.616 17.68 73.616 20.368V38.032C73.616 40.72 72.928 42.8 71.552 44.272C70.176 45.744 68.192 46.48 65.6 46.48ZM65.6 41.68C67.424 41.68 68.336 40.576 68.336 38.368V20.032C68.336 17.824 67.424 16.72 65.6 16.72C63.776 16.72 62.864 17.824 62.864 20.032V38.368C62.864 40.576 63.776 41.68 65.6 41.68ZM76.6107 12.4H83.2348L88.3708 32.512H88.4668V12.4H93.1708V46H87.7467L81.4107 21.472H81.3148V46H76.6107V12.4ZM96.5191 12.4H104.295C106.919 12.4 108.887 13.104 110.199 14.512C111.511 15.92 112.167 17.984 112.167 20.704V24.016C112.167 26.736 111.511 28.8 110.199 30.208C108.887 31.616 106.919 32.32 104.295 32.32H101.799V46H96.5191V12.4ZM104.295 27.52C105.159 27.52 105.799 27.28 106.215 26.8C106.663 26.32 106.887 25.504 106.887 24.352V20.368C106.887 19.216 106.663 18.4 106.215 17.92C105.799 17.44 105.159 17.2 104.295 17.2H101.799V27.52H104.295ZM122.091 46.48C119.499 46.48 117.515 45.744 116.139 44.272C114.763 42.8 114.075 40.72 114.075 38.032V20.368C114.075 17.68 114.763 15.6 116.139 14.128C117.515 12.656 119.499 11.92 122.091 11.92C124.683 11.92 126.667 12.656 128.043 14.128C129.419 15.6 130.107 17.68 130.107 20.368V38.032C130.107 40.72 129.419 42.8 128.043 44.272C126.667 45.744 124.683 46.48 122.091 46.48ZM122.091 41.68C123.915 41.68 124.827 40.576 124.827 38.368V20.032C124.827 17.824 123.915 16.72 122.091 16.72C120.267 16.72 119.355 17.824 119.355 20.032V38.368C119.355 40.576 120.267 41.68 122.091 41.68ZM133.101 12.4H138.381V46H133.101V12.4ZM141.76 12.4H148.384L153.52 32.512H153.616V12.4H158.32V46H152.896L146.56 21.472H146.464V46H141.76V12.4ZM165.796 17.2H160.276V12.4H176.596V17.2H171.076V46H165.796V17.2ZM178.577 12.4H192.545V17.2H183.857V26.56H190.673V31.36H183.857V46H178.577V12.4ZM194.501 12.4H199.781V41.2H208.469V46H194.501V12.4ZM210.425 12.4H215.705V46H210.425V12.4ZM223.739 28.816L217.931 12.4H223.499L227.051 23.248H227.147L230.795 12.4H235.787L229.979 28.816L236.075 46H230.507L226.667 34.288H226.571L222.635 46H217.643L223.739 28.816Z" fill="white"/>
<path d="M59.648 44.272L60.3785 43.5891L59.648 44.272ZM59.648 14.128L60.3785 14.8109L59.648 14.128ZM71.552 14.128L70.8215 14.8109L71.552 14.128ZM71.552 44.272L70.8215 43.5891L71.552 44.272ZM65.6 45.48C63.2011 45.48 61.5149 44.8048 60.3785 43.5891L58.9175 44.9549C60.5331 46.6832 62.8149 47.48 65.6 47.48V45.48ZM60.3785 43.5891C59.2269 42.3572 58.584 40.553 58.584 38.032H56.584C56.584 40.887 57.3171 43.2428 58.9175 44.9549L60.3785 43.5891ZM58.584 38.032V20.368H56.584V38.032H58.584ZM58.584 20.368C58.584 17.847 59.2269 16.0428 60.3785 14.8109L58.9175 13.4451C57.3171 15.1572 56.584 17.513 56.584 20.368H58.584ZM60.3785 14.8109C61.5149 13.5952 63.2011 12.92 65.6 12.92V10.92C62.8149 10.92 60.5331 11.7168 58.9175 13.4451L60.3785 14.8109ZM65.6 12.92C67.9989 12.92 69.6851 13.5952 70.8215 14.8109L72.2825 13.4451C70.6669 11.7168 68.3851 10.92 65.6 10.92V12.92ZM70.8215 14.8109C71.9731 16.0428 72.616 17.847 72.616 20.368H74.616C74.616 17.513 73.8829 15.1572 72.2825 13.4451L70.8215 14.8109ZM72.616 20.368V38.032H74.616V20.368H72.616ZM72.616 38.032C72.616 40.553 71.9731 42.3572 70.8215 43.5891L72.2825 44.9549C73.8829 43.2428 74.616 40.887 74.616 38.032H72.616ZM70.8215 43.5891C69.6851 44.8048 67.9989 45.48 65.6 45.48V47.48C68.3851 47.48 70.6669 46.6832 72.2825 44.9549L70.8215 43.5891ZM65.6 42.68C66.7218 42.68 67.727 42.3313 68.423 41.4889C69.0887 40.683 69.336 39.5846 69.336 38.368H67.336C67.336 39.3594 67.1273 39.917 66.881 40.2151C66.665 40.4767 66.3022 40.68 65.6 40.68V42.68ZM69.336 38.368V20.032H67.336V38.368H69.336ZM69.336 20.032C69.336 18.8154 69.0887 17.717 68.423 16.9111C67.727 16.0687 66.7218 15.72 65.6 15.72V17.72C66.3022 17.72 66.665 17.9233 66.881 18.1849C67.1273 18.483 67.336 19.0406 67.336 20.032H69.336ZM65.6 15.72C64.4782 15.72 63.473 16.0687 62.777 16.9111C62.1113 17.717 61.864 18.8154 61.864 20.032H63.864C63.864 19.0406 64.0727 18.483 64.319 18.1849C64.535 17.9233 64.8978 17.72 65.6 17.72V15.72ZM61.864 20.032V38.368H63.864V20.032H61.864ZM61.864 38.368C61.864 39.5846 62.1113 40.683 62.777 41.4889C63.473 42.3313 64.4782 42.68 65.6 42.68V40.68C64.8978 40.68 64.535 40.4767 64.319 40.2151C64.0727 39.917 63.864 39.3594 63.864 38.368H61.864ZM76.6108 12.4V11.4H75.6108V12.4H76.6108ZM83.2348 12.4L84.2037 12.1526L84.0115 11.4H83.2348V12.4ZM88.3708 32.512L87.4018 32.7594L87.594 33.512H88.3708V32.512ZM88.4668 32.512V33.512H89.4668V32.512H88.4668ZM88.4668 12.4V11.4H87.4668V12.4H88.4668ZM93.1707 12.4H94.1707V11.4H93.1707V12.4ZM93.1707 46V47H94.1707V46H93.1707ZM87.7467 46L86.7785 46.2501L86.9722 47H87.7467V46ZM81.4107 21.472L82.379 21.2219L82.1853 20.472H81.4107V21.472ZM81.3148 21.472V20.472H80.3148V21.472H81.3148ZM81.3148 46V47H82.3148V46H81.3148ZM76.6108 46H75.6108V47H76.6108V46ZM76.6108 13.4H83.2348V11.4H76.6108V13.4ZM82.2658 12.6474L87.4018 32.7594L89.3397 32.2646L84.2037 12.1526L82.2658 12.6474ZM88.3708 33.512H88.4668V31.512H88.3708V33.512ZM89.4668 32.512V12.4H87.4668V32.512H89.4668ZM88.4668 13.4H93.1707V11.4H88.4668V13.4ZM92.1707 12.4V46H94.1707V12.4H92.1707ZM93.1707 45H87.7467V47H93.1707V45ZM88.715 45.7499L82.379 21.2219L80.4425 21.7221L86.7785 46.2501L88.715 45.7499ZM81.4107 20.472H81.3148V22.472H81.4107V20.472ZM80.3148 21.472V46H82.3148V21.472H80.3148ZM81.3148 45H76.6108V47H81.3148V45ZM77.6108 46V12.4H75.6108V46H77.6108ZM96.5191 12.4V11.4H95.5191V12.4H96.5191ZM110.199 14.512L109.468 15.1937V15.1937L110.199 14.512ZM110.199 30.208L109.468 29.5263L110.199 30.208ZM101.799 32.32V31.32H100.799V32.32H101.799ZM101.799 46V47H102.799V46H101.799ZM96.5191 46H95.5191V47H96.5191V46ZM106.215 26.8L105.484 26.1177L105.472 26.1311L105.459 26.1451L106.215 26.8ZM106.215 17.92L105.459 18.5749L105.472 18.5889L105.484 18.6023L106.215 17.92ZM101.799 17.2V16.2H100.799V17.2H101.799ZM101.799 27.52H100.799V28.52H101.799V27.52ZM96.5191 13.4H104.295V11.4H96.5191V13.4ZM104.295 13.4C106.746 13.4 108.406 14.0543 109.468 15.1937L110.931 13.8303C109.368 12.1537 107.092 11.4 104.295 11.4V13.4ZM109.468 15.1937C110.547 16.3521 111.167 18.1324 111.167 20.704H113.167C113.167 17.8356 112.475 15.4879 110.931 13.8303L109.468 15.1937ZM111.167 20.704V24.016H113.167V20.704H111.167ZM111.167 24.016C111.167 26.5876 110.547 28.3679 109.468 29.5263L110.931 30.8897C112.475 29.2321 113.167 26.8844 113.167 24.016H111.167ZM109.468 29.5263C108.406 30.6657 106.746 31.32 104.295 31.32V33.32C107.092 33.32 109.368 32.5663 110.931 30.8897L109.468 29.5263ZM104.295 31.32H101.799V33.32H104.295V31.32ZM100.799 32.32V46H102.799V32.32H100.799ZM101.799 45H96.5191V47H101.799V45ZM97.5191 46V12.4H95.5191V46H97.5191ZM104.295 28.52C105.339 28.52 106.303 28.2252 106.971 27.4549L105.459 26.1451C105.295 26.3348 104.979 26.52 104.295 26.52V28.52ZM106.946 27.4823C107.658 26.72 107.887 25.5824 107.887 24.352H105.887C105.887 25.4256 105.669 25.92 105.484 26.1177L106.946 27.4823ZM107.887 24.352V20.368H105.887V24.352H107.887ZM107.887 20.368C107.887 19.1376 107.658 18 106.946 17.2377L105.484 18.6023C105.669 18.8 105.887 19.2944 105.887 20.368H107.887ZM106.971 17.2651C106.303 16.4948 105.339 16.2 104.295 16.2V18.2C104.979 18.2 105.295 18.3852 105.459 18.5749L106.971 17.2651ZM104.295 16.2H101.799V18.2H104.295V16.2ZM100.799 17.2V27.52H102.799V17.2H100.799ZM101.799 28.52H104.295V26.52H101.799V28.52ZM116.139 44.272L116.869 43.5891L116.139 44.272ZM116.139 14.128L116.869 14.8109L116.139 14.128ZM128.043 14.128L127.312 14.8109L128.043 14.128ZM128.043 44.272L127.312 43.5891L128.043 44.272ZM122.091 45.48C119.692 45.48 118.006 44.8048 116.869 43.5891L115.408 44.9549C117.024 46.6832 119.306 47.48 122.091 47.48V45.48ZM116.869 43.5891C115.718 42.3572 115.075 40.553 115.075 38.032H113.075C113.075 40.887 113.808 43.2428 115.408 44.9549L116.869 43.5891ZM115.075 38.032V20.368H113.075V38.032H115.075ZM115.075 20.368C115.075 17.847 115.718 16.0428 116.869 14.8109L115.408 13.4451C113.808 15.1572 113.075 17.513 113.075 20.368H115.075ZM116.869 14.8109C118.006 13.5952 119.692 12.92 122.091 12.92V10.92C119.306 10.92 117.024 11.7168 115.408 13.4451L116.869 14.8109ZM122.091 12.92C124.49 12.92 126.176 13.5952 127.312 14.8109L128.773 13.4451C127.158 11.7168 124.876 10.92 122.091 10.92V12.92ZM127.312 14.8109C128.464 16.0428 129.107 17.847 129.107 20.368H131.107C131.107 17.513 130.374 15.1572 128.773 13.4451L127.312 14.8109ZM129.107 20.368V38.032H131.107V20.368H129.107ZM129.107 38.032C129.107 40.553 128.464 42.3572 127.312 43.5891L128.773 44.9549C130.374 43.2428 131.107 40.887 131.107 38.032H129.107ZM127.312 43.5891C126.176 44.8048 124.49 45.48 122.091 45.48V47.48C124.876 47.48 127.158 46.6832 128.773 44.9549L127.312 43.5891ZM122.091 42.68C123.213 42.68 124.218 42.3313 124.914 41.4889C125.579 40.683 125.827 39.5846 125.827 38.368H123.827C123.827 39.3594 123.618 39.917 123.372 40.2151C123.156 40.4767 122.793 40.68 122.091 40.68V42.68ZM125.827 38.368V20.032H123.827V38.368H125.827ZM125.827 20.032C125.827 18.8154 125.579 17.717 124.914 16.9111C124.218 16.0687 123.213 15.72 122.091 15.72V17.72C122.793 17.72 123.156 17.9233 123.372 18.1849C123.618 18.483 123.827 19.0406 123.827 20.032H125.827ZM122.091 15.72C120.969 15.72 119.964 16.0687 119.268 16.9111C118.602 17.717 118.355 18.8154 118.355 20.032H120.355C120.355 19.0406 120.563 18.483 120.81 18.1849C121.026 17.9233 121.389 17.72 122.091 17.72V15.72ZM118.355 20.032V38.368H120.355V20.032H118.355ZM118.355 38.368C118.355 39.5846 118.602 40.683 119.268 41.4889C119.964 42.3313 120.969 42.68 122.091 42.68V40.68C121.389 40.68 121.026 40.4767 120.81 40.2151C120.563 39.917 120.355 39.3594 120.355 38.368H118.355ZM133.102 12.4V11.4H132.102V12.4H133.102ZM138.382 12.4H139.382V11.4H138.382V12.4ZM138.382 46V47H139.382V46H138.382ZM133.102 46H132.102V47H133.102V46ZM133.102 13.4H138.382V11.4H133.102V13.4ZM137.382 12.4V46H139.382V12.4H137.382ZM138.382 45H133.102V47H138.382V45ZM134.102 46V12.4H132.102V46H134.102ZM141.76 12.4V11.4H140.76V12.4H141.76ZM148.384 12.4L149.353 12.1526L149.161 11.4H148.384V12.4ZM153.52 32.512L152.551 32.7594L152.743 33.512H153.52V32.512ZM153.616 32.512V33.512H154.616V32.512H153.616ZM153.616 12.4V11.4H152.616V12.4H153.616ZM158.32 12.4H159.32V11.4H158.32V12.4ZM158.32 46V47H159.32V46H158.32ZM152.896 46L151.928 46.2501L152.121 47H152.896V46ZM146.56 21.472L147.528 21.2219L147.334 20.472H146.56V21.472ZM146.464 21.472V20.472H145.464V21.472H146.464ZM146.464 46V47H147.464V46H146.464ZM141.76 46H140.76V47H141.76V46ZM141.76 13.4H148.384V11.4H141.76V13.4ZM147.415 12.6474L152.551 32.7594L154.489 32.2646L149.353 12.1526L147.415 12.6474ZM153.52 33.512H153.616V31.512H153.52V33.512ZM154.616 32.512V12.4H152.616V32.512H154.616ZM153.616 13.4H158.32V11.4H153.616V13.4ZM157.32 12.4V46H159.32V12.4H157.32ZM158.32 45H152.896V47H158.32V45ZM153.864 45.7499L147.528 21.2219L145.592 21.7221L151.928 46.2501L153.864 45.7499ZM146.56 20.472H146.464V22.472H146.56V20.472ZM145.464 21.472V46H147.464V21.472H145.464ZM146.464 45H141.76V47H146.464V45ZM142.76 46V12.4H140.76V46H142.76ZM165.796 17.2H166.796V16.2H165.796V17.2ZM160.276 17.2H159.276V18.2H160.276V17.2ZM160.276 12.4V11.4H159.276V12.4H160.276ZM176.596 12.4H177.596V11.4H176.596V12.4ZM176.596 17.2V18.2H177.596V17.2H176.596ZM171.076 17.2V16.2H170.076V17.2H171.076ZM171.076 46V47H172.076V46H171.076ZM165.796 46H164.796V47H165.796V46ZM165.796 16.2H160.276V18.2H165.796V16.2ZM161.276 17.2V12.4H159.276V17.2H161.276ZM160.276 13.4H176.596V11.4H160.276V13.4ZM175.596 12.4V17.2H177.596V12.4H175.596ZM176.596 16.2H171.076V18.2H176.596V16.2ZM170.076 17.2V46H172.076V17.2H170.076ZM171.076 45H165.796V47H171.076V45ZM166.796 46V17.2H164.796V46H166.796ZM178.577 12.4V11.4H177.577V12.4H178.577ZM192.545 12.4H193.545V11.4H192.545V12.4ZM192.545 17.2V18.2H193.545V17.2H192.545ZM183.857 17.2V16.2H182.857V17.2H183.857ZM183.857 26.56H182.857V27.56H183.857V26.56ZM190.673 26.56H191.673V25.56H190.673V26.56ZM190.673 31.36V32.36H191.673V31.36H190.673ZM183.857 31.36V30.36H182.857V31.36H183.857ZM183.857 46V47H184.857V46H183.857ZM178.577 46H177.577V47H178.577V46ZM178.577 13.4H192.545V11.4H178.577V13.4ZM191.545 12.4V17.2H193.545V12.4H191.545ZM192.545 16.2H183.857V18.2H192.545V16.2ZM182.857 17.2V26.56H184.857V17.2H182.857ZM183.857 27.56H190.673V25.56H183.857V27.56ZM189.673 26.56V31.36H191.673V26.56H189.673ZM190.673 30.36H183.857V32.36H190.673V30.36ZM182.857 31.36V46H184.857V31.36H182.857ZM183.857 45H178.577V47H183.857V45ZM179.577 46V12.4H177.577V46H179.577ZM194.501 12.4V11.4H193.501V12.4H194.501ZM199.781 12.4H200.781V11.4H199.781V12.4ZM199.781 41.2H198.781V42.2H199.781V41.2ZM208.469 41.2H209.469V40.2H208.469V41.2ZM208.469 46V47H209.469V46H208.469ZM194.501 46H193.501V47H194.501V46ZM194.501 13.4H199.781V11.4H194.501V13.4ZM198.781 12.4V41.2H200.781V12.4H198.781ZM199.781 42.2H208.469V40.2H199.781V42.2ZM207.469 41.2V46H209.469V41.2H207.469ZM208.469 45H194.501V47H208.469V45ZM195.501 46V12.4H193.501V46H195.501ZM210.425 12.4V11.4H209.425V12.4H210.425ZM215.705 12.4H216.705V11.4H215.705V12.4ZM215.705 46V47H216.705V46H215.705ZM210.425 46H209.425V47H210.425V46ZM210.425 13.4H215.705V11.4H210.425V13.4ZM214.705 12.4V46H216.705V12.4H214.705ZM215.705 45H210.425V47H215.705V45ZM211.425 46V12.4H209.425V46H211.425ZM223.739 28.816L224.681 29.1503L224.8 28.8164L224.682 28.4825L223.739 28.816ZM217.931 12.4V11.4H216.516L216.988 12.7335L217.931 12.4ZM223.499 12.4L224.449 12.0888L224.224 11.4H223.499V12.4ZM227.051 23.248L226.101 23.5592L226.326 24.248H227.051V23.248ZM227.147 23.248V24.248H227.866L228.095 23.5667L227.147 23.248ZM230.795 12.4V11.4H230.076L229.847 12.0813L230.795 12.4ZM235.787 12.4L236.73 12.7335L237.202 11.4H235.787V12.4ZM229.979 28.816L229.036 28.4825L228.918 28.8164L229.037 29.1503L229.979 28.816ZM236.075 46V47H237.491L237.017 45.6657L236.075 46ZM230.507 46L229.557 46.3116L229.783 47H230.507V46ZM226.667 34.288L227.617 33.9764L227.392 33.288H226.667V34.288ZM226.571 34.288V33.288H225.852L225.623 33.9694L226.571 34.288ZM222.635 46V47H223.354L223.583 46.3186L222.635 46ZM217.643 46L216.701 45.6657L216.227 47H217.643V46ZM224.682 28.4825L218.874 12.0665L216.988 12.7335L222.796 29.1495L224.682 28.4825ZM217.931 13.4H223.499V11.4H217.931V13.4ZM222.549 12.7112L226.101 23.5592L228.001 22.9368L224.449 12.0888L222.549 12.7112ZM227.051 24.248H227.147V22.248H227.051V24.248ZM228.095 23.5667L231.743 12.7187L229.847 12.0813L226.199 22.9293L228.095 23.5667ZM230.795 13.4H235.787V11.4H230.795V13.4ZM234.844 12.0665L229.036 28.4825L230.922 29.1495L236.73 12.7335L234.844 12.0665ZM229.037 29.1503L235.133 46.3343L237.017 45.6657L230.921 28.4817L229.037 29.1503ZM236.075 45H230.507V47H236.075V45ZM231.457 45.6884L227.617 33.9764L225.717 34.5996L229.557 46.3116L231.457 45.6884ZM226.667 33.288H226.571V35.288H226.667V33.288ZM225.623 33.9694L221.687 45.6814L223.583 46.3186L227.519 34.6066L225.623 33.9694ZM222.635 45H217.643V47H222.635V45ZM218.585 46.3343L224.681 29.1503L222.797 28.4817L216.701 45.6657L218.585 46.3343Z" fill="black" mask="url(#path-2-outside-1_12_19)"/>
</g>
<path d="M28 44.6666C37.205 44.6666 44.6666 37.205 44.6666 28C44.6666 18.795 37.205 11.3333 28 11.3333C18.795 11.3333 11.3333 18.795 11.3333 28C11.3333 37.205 18.795 44.6666 28 44.6666Z" stroke="#F1F5F9" stroke-width="4" stroke-linejoin="round"/>
<path d="M28 23C28.663 23 29.2989 22.7366 29.7678 22.2678C30.2366 21.7989 30.5 21.163 30.5 20.5C30.5 19.837 30.2366 19.2011 29.7678 18.7322C29.2989 18.2634 28.663 18 28 18C27.337 18 26.7011 18.2634 26.2322 18.7322C25.7634 19.2011 25.5 19.837 25.5 20.5C25.5 21.163 25.7634 21.7989 26.2322 22.2678C26.7011 22.7366 27.337 23 28 23ZM28 38C28.663 38 29.2989 37.7366 29.7678 37.2678C30.2366 36.7989 30.5 36.163 30.5 35.5C30.5 34.837 30.2366 34.2011 29.7678 33.7322C29.2989 33.2634 28.663 33 28 33C27.337 33 26.7011 33.2634 26.2322 33.7322C25.7634 34.2011 25.5 34.837 25.5 35.5C25.5 36.163 25.7634 36.7989 26.2322 37.2678C26.7011 37.7366 27.337 38 28 38ZM20.5 30.5C21.163 30.5 21.7989 30.2366 22.2678 29.7678C22.7366 29.2989 23 28.663 23 28C23 27.337 22.7366 26.7011 22.2678 26.2322C21.7989 25.7634 21.163 25.5 20.5 25.5C19.837 25.5 19.2011 25.7634 18.7322 26.2322C18.2634 26.7011 18 27.337 18 28C18 28.663 18.2634 29.2989 18.7322 29.7678C19.2011 30.2366 19.837 30.5 20.5 30.5ZM35.5 30.5C36.163 30.5 36.7989 30.2366 37.2678 29.7678C37.7366 29.2989 38 28.663 38 28C38 27.337 37.7366 26.7011 37.2678 26.2322C36.7989 25.7634 36.163 25.5 35.5 25.5C34.837 25.5 34.2011 25.7634 33.7322 26.2322C33.2634 26.7011 33 27.337 33 28C33 28.663 33.2634 29.2989 33.7322 29.7678C34.2011 30.2366 34.837 30.5 35.5 30.5Z" stroke="#F1F5F9" stroke-width="4" stroke-linejoin="round"/>
<path d="M28 44.6667H44.6667" stroke="#F1F5F9" stroke-width="4" stroke-linecap="round"/>
<defs>
<filter id="filter0_d_12_19" x="53.584" y="11.92" width="186.491" height="42.56" filterUnits="userSpaceOnUse" color-interpolation-filters="sRGB">
<feFlood flood-opacity="0" result="BackgroundImageFix"/>
<feColorMatrix in="SourceAlpha" type="matrix" values="0 0 0 0 0 0 0 0 0 0 0 0 0 0 0 0 0 0 127 0" result="hardAlpha"/>
<feOffset dy="4"/>
<feGaussianBlur stdDeviation="2"/>
<feComposite in2="hardAlpha" operator="out"/>
<feColorMatrix type="matrix" values="0 0 0 0 0 0 0 0 0 0 0 0 0 0 0 0 0 0 0.25 0"/>
<feBlend mode="normal" in2="BackgroundImageFix" result="effect1_dropShadow_12_19"/>
<feBlend mode="normal" in="SourceGraphic" in2="effect1_dropShadow_12_19" result="shape"/>
</filter>
</defs>
</svg>
